<mxGraphModel dx="2022" dy="1124" grid="1" gridSize="10" guides="1" tooltips="1" connect="1" arrows="1" fold="1" page="1" pageScale="1" pageWidth="827" pageHeight="1169" math="0" shadow="0">
  <root>
    <mxCell id="0" />
    <mxCell id="1" parent="0" />
    <mxCell id="sK9md51lFoUUqxnaWG9B-9" style="endArrow=classic;html=1;fontSize=24;" parent="1" source="sK9md51lFoUUqxnaWG9B-1" target="sK9md51lFoUUqxnaWG9B-3" edge="1">
      <mxGeometry relative="1" as="geometry" />
    </mxCell>
    <mxCell id="sK9md51lFoUUqxnaWG9B-10" style="endArrow=classic;html=1;fontSize=24;" parent="1" source="sK9md51lFoUUqxnaWG9B-1" target="sK9md51lFoUUqxnaWG9B-5" edge="1">
      <mxGeometry relative="1" as="geometry" />
    </mxCell>
    <mxCell id="sK9md51lFoUUqxnaWG9B-1" value="p&lt;span style=&quot;font-size: 24px&quot;&gt;&lt;sub&gt;1&lt;/sub&gt;&lt;/span&gt;" style="ellipse;whiteSpace=wrap;html=1;aspect=fixed;fontSize=24;" parent="1" vertex="1">
      <mxGeometry x="150" y="90" width="50" height="50" as="geometry" />
    </mxCell>
    <mxCell id="sK9md51lFoUUqxnaWG9B-11" style="endArrow=classic;html=1;fontSize=24;" parent="1" source="sK9md51lFoUUqxnaWG9B-2" target="sK9md51lFoUUqxnaWG9B-5" edge="1">
      <mxGeometry relative="1" as="geometry" />
    </mxCell>
    <mxCell id="sK9md51lFoUUqxnaWG9B-12" style="endArrow=classic;html=1;fontSize=24;" parent="1" source="sK9md51lFoUUqxnaWG9B-2" target="sK9md51lFoUUqxnaWG9B-6" edge="1">
      <mxGeometry relative="1" as="geometry" />
    </mxCell>
    <mxCell id="sK9md51lFoUUqxnaWG9B-2" value="&lt;span style=&quot;font-size: 24px&quot;&gt;p&lt;/span&gt;&lt;span style=&quot;font-size: 24px&quot;&gt;&lt;sub&gt;2&lt;/sub&gt;&lt;/span&gt;" style="ellipse;whiteSpace=wrap;html=1;aspect=fixed;fontSize=24;" parent="1" vertex="1">
      <mxGeometry x="150" y="180" width="50" height="50" as="geometry" />
    </mxCell>
    <mxCell id="sK9md51lFoUUqxnaWG9B-3" value="&lt;span style=&quot;font-size: 24px&quot;&gt;p&lt;/span&gt;&lt;span style=&quot;font-size: 24px&quot;&gt;&lt;sub&gt;3&lt;/sub&gt;&lt;/span&gt;" style="ellipse;whiteSpace=wrap;html=1;aspect=fixed;fontSize=24;" parent="1" vertex="1">
      <mxGeometry x="280" y="40" width="50" height="50" as="geometry" />
    </mxCell>
    <mxCell id="sK9md51lFoUUqxnaWG9B-5" value="&lt;span style=&quot;font-size: 24px&quot;&gt;p&lt;/span&gt;&lt;span style=&quot;font-size: 24px&quot;&gt;&lt;sub&gt;4&lt;/sub&gt;&lt;/span&gt;" style="ellipse;whiteSpace=wrap;html=1;aspect=fixed;fontSize=24;" parent="1" vertex="1">
      <mxGeometry x="280" y="150" width="50" height="50" as="geometry" />
    </mxCell>
    <mxCell id="sK9md51lFoUUqxnaWG9B-6" value="&lt;span style=&quot;font-size: 24px&quot;&gt;p&lt;/span&gt;&lt;span style=&quot;font-size: 24px&quot;&gt;&lt;sub&gt;5&lt;/sub&gt;&lt;/span&gt;" style="ellipse;whiteSpace=wrap;html=1;aspect=fixed;fontSize=24;" parent="1" vertex="1">
      <mxGeometry x="280" y="240" width="50" height="50" as="geometry" />
    </mxCell>
    <mxCell id="rEtKh-DefSeFmZCZUTKh-4" value="" style="endArrow=classic;html=1;dashed=1;exitX=1;exitY=1;exitDx=0;exitDy=0;fontSize=24;" edge="1" parent="1" source="sK9md51lFoUUqxnaWG9B-1" target="sK9md51lFoUUqxnaWG9B-6">
      <mxGeometry width="50" height="50" relative="1" as="geometry">
        <mxPoint x="390" y="600" as="sourcePoint" />
        <mxPoint x="440" y="550" as="targetPoint" />
      </mxGeometry>
    </mxCell>
    <mxCell id="rEtKh-DefSeFmZCZUTKh-5" value="" style="endArrow=classic;html=1;dashed=1;exitX=1;exitY=0;exitDx=0;exitDy=0;entryX=0;entryY=1;entryDx=0;entryDy=0;fontSize=24;" edge="1" parent="1" source="sK9md51lFoUUqxnaWG9B-2" target="sK9md51lFoUUqxnaWG9B-3">
      <mxGeometry width="50" height="50" relative="1" as="geometry">
        <mxPoint x="202.67766952966394" y="142.67766952966394" as="sourcePoint" />
        <mxPoint x="298.82556379513926" y="255.93727161569996" as="targetPoint" />
      </mxGeometry>
    </mxCell>
  </root>
</mxGraphModel>
